<?xml version="1.0" encoding="iso-8859-1"?>
<!-- Generator: Adobe Illustrator 18.0.0, SVG Export Plug-In . SVG Version: 6.00 Build 0)  -->
<!DOCTYPE svg PUBLIC "-//W3C//DTD SVG 1.1//EN" "http://www.w3.org/Graphics/SVG/1.1/DTD/svg11.dtd">
<svg version="1.1" id="Capa_1" xmlns="http://www.w3.org/2000/svg" xmlns:xlink="http://www.w3.org/1999/xlink" x="0px" y="0px"
	 viewBox="0 0 267 267" style="enable-background:new 0 0 267 267;" xml:space="preserve">
<g>
	<path style="fill-rule:evenodd;clip-rule:evenodd;" d="M133.5,50C101.061,50,71.9,64.153,52,86.744V13.5C52,6.044,45.956,0,38.5,0
		S25,6.044,25,13.5v145C25,218.327,73.673,267,133.5,267S242,218.327,242,158.5S193.327,50,133.5,50z M133.5,240
		C88.561,240,52,203.439,52,158.5v-2.735C52,119.167,89.82,77,133.5,77c44.939,0,81.5,36.561,81.5,81.5S178.439,240,133.5,240z"/>
	<circle style="fill-rule:evenodd;clip-rule:evenodd;" cx="77.373" cy="160.636" r="16.667"/>
</g>
<g>
</g>
<g>
</g>
<g>
</g>
<g>
</g>
<g>
</g>
<g>
</g>
<g>
</g>
<g>
</g>
<g>
</g>
<g>
</g>
<g>
</g>
<g>
</g>
<g>
</g>
<g>
</g>
<g>
</g>
</svg>
