<?xml version="1.0" encoding="iso-8859-1"?>
<!-- Generator: Adobe Illustrator 18.0.0, SVG Export Plug-In . SVG Version: 6.00 Build 0)  -->
<!DOCTYPE svg PUBLIC "-//W3C//DTD SVG 1.1//EN" "http://www.w3.org/Graphics/SVG/1.1/DTD/svg11.dtd">
<svg version="1.1" id="Capa_1" xmlns="http://www.w3.org/2000/svg" xmlns:xlink="http://www.w3.org/1999/xlink" x="0px" y="0px"
	 viewBox="0 0 312 312" style="enable-background:new 0 0 312 312;" xml:space="preserve">
<path d="M156,87c-12.714,0-25.202,2.11-37.117,6.272c-12.252,4.281-18.715,17.684-14.435,29.936
	c4.28,12.252,17.681,18.713,29.936,14.436C141.304,135.226,148.577,134,156,134c36.117,0,65.5,29.383,65.5,65.5S192.117,265,156,265
	c-36.117,0-65.5-29.383-65.5-65.5v-176C90.5,10.521,79.978,0,67,0C54.021,0,43.5,10.521,43.5,23.5v176
	C43.5,261.533,93.967,312,156,312s112.5-50.467,112.5-112.5S218.033,87,156,87z"/>
<g>
</g>
<g>
</g>
<g>
</g>
<g>
</g>
<g>
</g>
<g>
</g>
<g>
</g>
<g>
</g>
<g>
</g>
<g>
</g>
<g>
</g>
<g>
</g>
<g>
</g>
<g>
</g>
<g>
</g>
</svg>
