<?xml version="1.0" encoding="iso-8859-1"?>
<!-- Generator: Adobe Illustrator 18.0.0, SVG Export Plug-In . SVG Version: 6.00 Build 0)  -->
<!DOCTYPE svg PUBLIC "-//W3C//DTD SVG 1.1//EN" "http://www.w3.org/Graphics/SVG/1.1/DTD/svg11.dtd">
<svg version="1.1" id="Capa_1" xmlns="http://www.w3.org/2000/svg" xmlns:xlink="http://www.w3.org/1999/xlink" x="0px" y="0px"
	 viewBox="0 0 326.686 326.686" style="enable-background:new 0 0 326.686 326.686;" xml:space="preserve">
<path d="M277.66,89.314c-4.84-26.539-18.099-48.952-38.343-64.818C218.871,8.471,192.192,0,162.164,0
	C98.745,0,47.15,49.011,47.15,109.253c0,25.137,9.206,49.681,25.923,69.109c5.764,6.698,15.866,7.457,22.564,1.693
	c6.698-5.764,7.456-15.866,1.693-22.564c-11.893-13.823-18.18-30.504-18.18-48.238C79.15,66.655,116.39,32,162.164,32
	c45.406,0,76.814,23.572,84.016,63.057c8.033,44.041-21.172,78.337-45.647,83.538c-14.673,3.113-24.725-4.264-29.917-21.942
	c4.743-24.876,8.569-45.547,10.067-55.081c2.958-18.827-1.916-34.064-13.04-40.762c-7.71-4.641-17.066-4.104-24.417,1.4
	c-16.325,12.227-18.713,45.801-6.553,92.111c0.331,1.262,0.717,2.606,1.077,3.813c-12.082,63.058-29.012,148.195-29.257,149.427
	c-1.724,8.667,3.904,17.091,12.57,18.815c1.054,0.21,2.104,0.31,3.139,0.31c7.476,0,14.161-5.268,15.675-12.881
	c0.81-4.071,11.827-59.476,22.303-113.387c12.218,9.549,27.808,13.131,45.002,9.477c20.967-4.455,41.591-19.736,55.169-40.876
	C277.343,145.685,282.779,117.378,277.66,89.314z"/>
<g>
</g>
<g>
</g>
<g>
</g>
<g>
</g>
<g>
</g>
<g>
</g>
<g>
</g>
<g>
</g>
<g>
</g>
<g>
</g>
<g>
</g>
<g>
</g>
<g>
</g>
<g>
</g>
<g>
</g>
</svg>
