<?xml version="1.0" encoding="iso-8859-1"?>
<!-- Generator: Adobe Illustrator 18.0.0, SVG Export Plug-In . SVG Version: 6.00 Build 0)  -->
<!DOCTYPE svg PUBLIC "-//W3C//DTD SVG 1.1//EN" "http://www.w3.org/Graphics/SVG/1.1/DTD/svg11.dtd">
<svg version="1.1" id="Capa_1" xmlns="http://www.w3.org/2000/svg" xmlns:xlink="http://www.w3.org/1999/xlink" x="0px" y="0px"
	 viewBox="0 0 282 282" style="enable-background:new 0 0 282 282;" xml:space="preserve">
<path d="M141.002,68c-30.382,0-58.885,10.281-80.687,27.259V20c0-11.046-8.954-20-20-20s-20,8.954-20,20v140.889
	c-0.005,0.257-0.005,0.512,0,0.768V175c0,59,54.141,107,120.687,107s120.688-48,120.688-107S207.549,68,141.002,68z M141.002,242
	c-44.491,0-80.687-30.056-80.687-67v-11.686C67.398,132.159,102.424,108,141.002,108c44.491,0,80.688,30.056,80.688,67
	S185.493,242,141.002,242z"/>
<g>
</g>
<g>
</g>
<g>
</g>
<g>
</g>
<g>
</g>
<g>
</g>
<g>
</g>
<g>
</g>
<g>
</g>
<g>
</g>
<g>
</g>
<g>
</g>
<g>
</g>
<g>
</g>
<g>
</g>
</svg>
