<?xml version="1.0" encoding="iso-8859-1"?>
<!-- Generator: Adobe Illustrator 18.0.0, SVG Export Plug-In . SVG Version: 6.00 Build 0)  -->
<!DOCTYPE svg PUBLIC "-//W3C//DTD SVG 1.1//EN" "http://www.w3.org/Graphics/SVG/1.1/DTD/svg11.dtd">
<svg version="1.1" id="Capa_1" xmlns="http://www.w3.org/2000/svg" xmlns:xlink="http://www.w3.org/1999/xlink" x="0px" y="0px"
	 viewBox="0 0 343.535 343.535" style="enable-background:new 0 0 343.535 343.535;" xml:space="preserve">
<path d="M342.242,207.219l-6.449-8.158c-20.488-25.921-55.948-47.663-99.846-61.221c-29.736-9.185-61.611-14.039-92.182-14.039
	c-13.511,0-26.764,0.942-39.391,2.802c-2.077,0.306-4.155,0.639-6.21,0.997L62.889,82.959c-1.398-1.771-3.669-2.607-5.888-2.163
	l-13.212,2.65c-2.046,0.41-3.732,1.855-4.452,3.814c-0.719,1.959-0.369,4.151,0.926,5.789l32.152,40.677
	c-34.597,10.71-58.621,29.454-68.106,53.351c-8.958,22.568-3.847,47.704,14.393,70.779l2.15,2.721
	c1.146,1.451,2.888,2.279,4.706,2.279c0.29,0,0.583-0.021,0.875-0.064l149.706-22.042c2.119-0.312,3.912-1.73,4.702-3.722
	c0.791-1.992,0.459-4.254-0.869-5.934l-64.599-81.724c9.184-1.04,18.696-1.566,28.377-1.566c60.368,0,121.756,19.848,157.62,50.216
	l-95.734,13.953l-42.153-53.328c-1.129-1.428-2.844-2.266-4.663-2.279l-15.385-0.112c-0.015,0-0.029,0-0.044,0
	c-2.291,0-4.384,1.305-5.391,3.365c-1.014,2.073-0.747,4.545,0.684,6.355l54.563,69.029c1.329,1.681,3.453,2.526,5.572,2.217
	L338.4,216.877c2.122-0.31,3.917-1.728,4.71-3.72C343.902,211.165,343.571,208.901,342.242,207.219z M26.615,195.932
	c7.376-18.582,29.854-33.696,61.949-41.775l53.265,67.386L33.534,237.488C23.927,223.057,21.528,208.748,26.615,195.932z"/>
<g>
</g>
<g>
</g>
<g>
</g>
<g>
</g>
<g>
</g>
<g>
</g>
<g>
</g>
<g>
</g>
<g>
</g>
<g>
</g>
<g>
</g>
<g>
</g>
<g>
</g>
<g>
</g>
<g>
</g>
</svg>
