<?xml version="1.0" encoding="iso-8859-1"?>
<!-- Generator: Adobe Illustrator 18.0.0, SVG Export Plug-In . SVG Version: 6.00 Build 0)  -->
<!DOCTYPE svg PUBLIC "-//W3C//DTD SVG 1.1//EN" "http://www.w3.org/Graphics/SVG/1.1/DTD/svg11.dtd">
<svg version="1.1" id="Capa_1" xmlns="http://www.w3.org/2000/svg" xmlns:xlink="http://www.w3.org/1999/xlink" x="0px" y="0px"
	 viewBox="0 0 263.008 263.008" style="enable-background:new 0 0 263.008 263.008;" xml:space="preserve">
<g>
	<path d="M142.668,80.195h71.859c2.247,0,4.069-1.822,4.069-4.07V4.264c0-2.248-1.822-4.069-4.069-4.069h-71.859
		c-2.248,0-4.07,1.821-4.07,4.069v71.86C138.597,78.373,140.42,80.195,142.668,80.195z"/>
	<path d="M258.508,60.398h-24.183c-2.485,0-4.5,2.015-4.5,4.5v15.638c0,6.004-4.884,10.889-10.888,10.889h-80.684
		c-6.003,0-10.887-4.885-10.887-10.889V64.898c0-2.485-2.015-4.5-4.5-4.5H99.42c-1.465,0-2.839,0.713-3.682,1.912
		c-0.842,1.198-1.049,2.731-0.553,4.11c5.097,14.175,7.944,28.851,8.464,43.618c0.11,3.174,0.153,6.725,0.13,10.855
		c-0.007,1.198,0.465,2.35,1.31,3.198c0.844,0.85,1.992,1.327,3.19,1.327h7.994v132.894c0,2.485,2.015,4.5,4.5,4.5h49.823
		c2.485,0,4.5-2.015,4.5-4.5v-88.34h7v88.34c0,2.485,2.015,4.5,4.5,4.5h39.316c2.485,0,4.5-2.015,4.5-4.5V125.42h28.097
		c2.485,0,4.5-2.015,4.5-4.5V64.898C263.008,62.413,260.994,60.398,258.508,60.398z"/>
	<path d="M87.396,65.568c-4.401-11.429-10.474-24.394-22.143-33.899c-9.55-7.769-19.496-8.469-29.558-2.067
		c-8.875,5.633-15.586,13.95-21.758,26.966C3.188,79.206-1.158,103.942,0.26,134.414c0.111,2.401,2.091,4.291,4.495,4.291h35.75
		v96.473c-12.045,1.463-21.461,6.291-22.145,11.467c-0.053,0.397-0.052,0.8,0.002,1.197c0.782,5.734,13.102,11.874,30.195,11.874
		c17.111,0,29.429-6.169,30.196-11.932c0.053-0.397,0.052-0.801-0.002-1.198c-0.7-5.167-10.159-9.977-22.247-11.422v-96.459h35.582
		c2.455,0,4.458-1.969,4.499-4.424l0.058-3.289c0.122-6.819,0.249-13.87,0.009-20.707C96.12,95.114,93.005,80.066,87.396,65.568z"/>
</g>
<g>
</g>
<g>
</g>
<g>
</g>
<g>
</g>
<g>
</g>
<g>
</g>
<g>
</g>
<g>
</g>
<g>
</g>
<g>
</g>
<g>
</g>
<g>
</g>
<g>
</g>
<g>
</g>
<g>
</g>
</svg>
