<?xml version="1.0" encoding="iso-8859-1"?>
<!-- Generator: Adobe Illustrator 18.0.0, SVG Export Plug-In . SVG Version: 6.00 Build 0)  -->
<!DOCTYPE svg PUBLIC "-//W3C//DTD SVG 1.1//EN" "http://www.w3.org/Graphics/SVG/1.1/DTD/svg11.dtd">
<svg version="1.1" id="Capa_1" xmlns="http://www.w3.org/2000/svg" xmlns:xlink="http://www.w3.org/1999/xlink" x="0px" y="0px"
	 viewBox="0 0 310.004 310.004" style="enable-background:new 0 0 310.004 310.004;" xml:space="preserve">
<path d="M308.743,132.564l-71.798-80.881c-0.975-1.098-2.377-1.715-3.85-1.679c-1.468,0.032-2.847,0.708-3.772,1.848l-74.321,91.602
	L80.681,51.852c-0.925-1.14-2.304-1.816-3.772-1.848c-1.488-0.038-2.875,0.581-3.85,1.679L1.261,132.564
	c-1.512,1.703-1.682,4.212-0.414,6.104l79.855,119.119c0.929,1.385,2.486,2.216,4.153,2.216h140.293
	c1.667,0,3.225-0.831,4.153-2.216l79.856-119.119C310.425,136.775,310.255,134.267,308.743,132.564z"/>
<g>
</g>
<g>
</g>
<g>
</g>
<g>
</g>
<g>
</g>
<g>
</g>
<g>
</g>
<g>
</g>
<g>
</g>
<g>
</g>
<g>
</g>
<g>
</g>
<g>
</g>
<g>
</g>
<g>
</g>
</svg>
