<?xml version="1.0" encoding="iso-8859-1"?>
<!-- Generator: Adobe Illustrator 18.0.0, SVG Export Plug-In . SVG Version: 6.00 Build 0)  -->
<!DOCTYPE svg PUBLIC "-//W3C//DTD SVG 1.1//EN" "http://www.w3.org/Graphics/SVG/1.1/DTD/svg11.dtd">
<svg version="1.1" id="Capa_1" xmlns="http://www.w3.org/2000/svg" xmlns:xlink="http://www.w3.org/1999/xlink" x="0px" y="0px"
	 viewBox="0 0 297.002 297.002" style="enable-background:new 0 0 297.002 297.002;" xml:space="preserve">
<path d="M295.215,102.556c-1.621-2.09-4.07-3.287-6.718-3.287c-1.9,0-3.701,0.615-5.208,1.783L130.776,219.405l-31.659-19.742
	c6.786-4.521,12.656-10.307,17.282-17.016l8.401,12.057c1.589,2.279,4.195,3.641,6.973,3.641c0.312,0,0.624-0.018,0.928-0.051
	c3.095-0.34,5.753-2.34,6.936-5.219l43.1-104.891c0.038-0.088,0.074-0.178,0.109-0.266l27.991-68.121
	c1.78-4.336-0.298-9.311-4.637-11.094c-1.03-0.422-2.115-0.637-3.223-0.637c-3.463,0-6.55,2.068-7.865,5.269l-23.189,56.436
	l-8.905-8.906c-5.397-5.398-12.585-8.371-20.236-8.371c-7.652,0-14.839,2.973-20.235,8.371L93.414,89.997
	c-8.852-4.652-18.915-7.301-29.591-7.301C28.631,82.696,0,111.327,0,146.52c0,30.813,21.95,56.596,51.035,62.533l71.511,71.512
	c5.396,5.396,12.583,8.369,20.235,8.369c7.651,0,14.838-2.973,20.235-8.371l89.613-89.613c11.157-11.156,11.158-29.313,0-40.471
	l-2.318-2.318l43.4-33.68c1.793-1.391,2.938-3.398,3.222-5.65C297.218,106.577,296.607,104.349,295.215,102.556z M17,146.52
	c0-25.818,21.005-46.824,46.823-46.824c25.818,0,46.823,21.006,46.823,46.824c0,25.818-21.005,46.822-46.823,46.822
	C38.005,193.343,17,172.339,17,146.52z"/>
<g>
</g>
<g>
</g>
<g>
</g>
<g>
</g>
<g>
</g>
<g>
</g>
<g>
</g>
<g>
</g>
<g>
</g>
<g>
</g>
<g>
</g>
<g>
</g>
<g>
</g>
<g>
</g>
<g>
</g>
</svg>
