<?xml version="1.0" encoding="iso-8859-1"?>
<!-- Generator: Adobe Illustrator 18.0.0, SVG Export Plug-In . SVG Version: 6.00 Build 0)  -->
<!DOCTYPE svg PUBLIC "-//W3C//DTD SVG 1.1//EN" "http://www.w3.org/Graphics/SVG/1.1/DTD/svg11.dtd">
<svg version="1.1" id="Capa_1" xmlns="http://www.w3.org/2000/svg" xmlns:xlink="http://www.w3.org/1999/xlink" x="0px" y="0px"
	 viewBox="0 0 320.453 320.453" style="enable-background:new 0 0 320.453 320.453;" xml:space="preserve">
<g>
	<g>
		<path d="M292.979,37.569C252.851,12.749,208.524,0.108,161.183,0C113.101,0.037,68.044,13.325,27.263,39.495
			c-6.972,4.474-8.997,13.753-4.523,20.725c2.865,4.465,7.7,6.9,12.638,6.9c2.773,0,5.579-0.769,8.087-2.378
			C79.34,41.723,118.954,30.033,161.16,30c42.248,0.097,80.204,10.919,116.038,33.083c7.046,4.357,16.29,2.18,20.648-4.866
			C302.203,51.171,300.024,41.927,292.979,37.569z"/>
		<path d="M246.826,77.375c-57.32-27.104-115.183-26.809-171.977,0.876c-7.447,3.63-10.541,12.609-6.911,20.056
			c2.599,5.331,7.938,8.432,13.495,8.431c2.205,0,4.445-0.488,6.561-1.52c48.883-23.828,96.643-24.064,146.01-0.722
			c7.488,3.542,16.431,0.341,19.972-7.148C257.516,89.858,254.316,80.916,246.826,77.375z"/>
	</g>
	<g>
		<path d="M160.407,114.533h-0.274c-27.351,0-53.08,10.7-72.446,30.129c-19.496,19.559-30.183,45.563-30.094,73.225
			c0.195,56.494,46.173,102.505,102.492,102.566h0.114c0.003,0,0.006,0,0.01,0c27.48,0,53.254-10.656,72.576-30.007
			c19.441-19.471,30.124-45.484,30.079-73.249C262.773,160.737,216.812,114.683,160.407,114.533z M160.226,277.492
			c-33.084,0-60-26.916-60-60s26.916-60,60-60s60,26.916,60,60S193.31,277.492,160.226,277.492z"/>
	</g>
</g>
<g>
</g>
<g>
</g>
<g>
</g>
<g>
</g>
<g>
</g>
<g>
</g>
<g>
</g>
<g>
</g>
<g>
</g>
<g>
</g>
<g>
</g>
<g>
</g>
<g>
</g>
<g>
</g>
<g>
</g>
</svg>
