<?xml version="1.0" encoding="iso-8859-1"?>
<!-- Generator: Adobe Illustrator 18.0.0, SVG Export Plug-In . SVG Version: 6.00 Build 0)  -->
<!DOCTYPE svg PUBLIC "-//W3C//DTD SVG 1.1//EN" "http://www.w3.org/Graphics/SVG/1.1/DTD/svg11.dtd">
<svg version="1.1" id="Capa_1" xmlns="http://www.w3.org/2000/svg" xmlns:xlink="http://www.w3.org/1999/xlink" x="0px" y="0px"
	 viewBox="0 0 345.239 345.239" style="enable-background:new 0 0 345.239 345.239;" xml:space="preserve">
<g>
	<path d="M136.5,239.18h-4.348v-50.808c0-28.882-16.259-50.451-41.421-54.949c-2.907-0.52-5.928-0.783-8.981-0.783
		c-12.289,0-26.628,4.272-39.25,14.753V90.876c0-3.314-2.687-6-6-6H6c-3.313,0-6,2.686-6,6v13c0,3.313,2.687,6,6,6h11.5v127.992H6
		c-3.313,0-6,2.688-6,6v13c0,3.314,2.687,6,6,6h30.5c3.313,0,6-2.686,6-6v-67.072c9.509-23.69,26.894-32.168,39.153-32.168
		c1.603,0,3.177,0.136,4.678,0.404c13.038,2.331,20.821,13.673,20.821,30.34v50.808h-3.986c-3.313,0-6,2.688-6,6v13
		c0,3.314,2.687,6,6,6H136.5c3.313,0,6-2.686,6-6v-13C142.5,241.867,139.813,239.18,136.5,239.18z"/>
	<path d="M202.667,239.18H198.5V138.613c0-3.314-2.687-6-6-6H156c-3.314,0-6,2.686-6,6v13c0,3.313,2.686,6,6,6h17.5v81.567h-4.167
		c-3.314,0-6,2.688-6,6v13c0,3.314,2.686,6,6,6h33.333c3.313,0,6-2.686,6-6v-13C208.667,241.867,205.98,239.18,202.667,239.18z"/>
	<path d="M171,123.611h21.5c3.313,0,6-2.687,6-6v-13c0-3.313-2.687-6-6-6H171c-3.314,0-6,2.687-6,6v13
		C165,120.924,167.686,123.611,171,123.611z"/>
	<path d="M326.962,155.473c-7.609-7.116-21.149-15.597-42.438-15.597c-12.143,0-25.47,2.815-39.642,8.37l-5.673-1.773l7.571-41.978
		h58.669v16.366c0,3.313,2.686,6,6,6h13c3.314,0,6-2.687,6-6V85.495c0-3.314-2.686-6-6-6h-93.549c-2.903,0-5.39,2.078-5.905,4.935
		l-13.366,74.111c-0.537,2.978,1.227,5.889,4.115,6.792l28.258,8.83c1.361,0.426,2.829,0.351,4.141-0.205l2.201-0.938
		c12.658-5.39,24.194-8.123,34.285-8.123c10.489,0,18.986,2.973,25.257,8.838c9.882,9.24,13.105,25.248,8.021,39.836
		c-5.436,15.594-18.737,25.365-36.548,26.813l-0.153,0.014c-2.449,0.24-4.858,0.361-7.16,0.361c-13.919,0-24.584-4.25-31.698-12.633
		c-8.162-9.617-10.649-24.283-6.656-39.23c0.411-1.537,0.194-3.174-0.603-4.553c-0.796-1.377-2.108-2.381-3.645-2.793l-12.56-3.355
		c-3.201-0.854-6.49,1.047-7.345,4.248c-6.111,22.867-1.719,45.992,11.747,61.859c11.735,13.828,29.845,21.443,50.993,21.443
		c0,0,0,0,0,0c3.033,0,6.165-0.156,9.218-0.453c27.626-2.266,49.314-18.525,58.017-43.492
		C349.804,198.016,343.955,171.362,326.962,155.473z"/>
</g>
<g>
</g>
<g>
</g>
<g>
</g>
<g>
</g>
<g>
</g>
<g>
</g>
<g>
</g>
<g>
</g>
<g>
</g>
<g>
</g>
<g>
</g>
<g>
</g>
<g>
</g>
<g>
</g>
<g>
</g>
</svg>
