<?xml version="1.0" encoding="iso-8859-1"?>
<!-- Generator: Adobe Illustrator 18.0.0, SVG Export Plug-In . SVG Version: 6.00 Build 0)  -->
<!DOCTYPE svg PUBLIC "-//W3C//DTD SVG 1.1//EN" "http://www.w3.org/Graphics/SVG/1.1/DTD/svg11.dtd">
<svg version="1.1" id="Capa_1" xmlns="http://www.w3.org/2000/svg" xmlns:xlink="http://www.w3.org/1999/xlink" x="0px" y="0px"
	 viewBox="0 0 243.391 243.391" style="enable-background:new 0 0 243.391 243.391;" xml:space="preserve">
<g>
	<path d="M153.811,242.807l31.978-23.144l31.978,23.144c1.032,0.745,2.494,0.745,3.525-0.006c1.053-0.768,1.489-2.115,1.086-3.353
		l-12.194-37.454l31.966-23.135c1.058-0.766,1.497-2.114,1.096-3.355c-0.402-1.241-1.55-2.075-2.855-2.075h-39.531l-12.218-37.462
		c-0.404-1.237-1.55-2.069-2.853-2.069c-1.303,0.001-2.449,0.833-2.853,2.071l-12.197,37.46h-39.532
		c-1.305,0-2.452,0.834-2.854,2.075c-0.401,1.241,0.038,2.59,1.096,3.355l31.965,23.134L149.2,239.447
		c-0.403,1.238,0.033,2.587,1.086,3.355C151.317,243.554,152.78,243.555,153.811,242.807z"/>
	<path d="M122.413,188.58c-5.269-3.813-7.48-10.586-5.477-16.773s7.767-10.378,14.271-10.378h30.819l9.5-29.175
		c2.01-6.175,7.766-10.354,14.259-10.356h0.004c6.492,0,12.248,4.177,14.261,10.349l9.518,29.183h27.088
		c-0.01-0.032-0.013-0.065-0.023-0.099L185.153,3.475c-0.671-2.058-2.59-3.45-4.754-3.45c-2.165,0-4.083,1.393-4.754,3.45
		L135.373,127.04H5c-2.166,0-4.085,1.395-4.755,3.454c-0.67,2.06,0.063,4.316,1.814,5.59l134.654,97.908
		c0.438,0.318,0.914,0.557,1.409,0.716l9.17-28.121L122.413,188.58z"/>
</g>
<g>
</g>
<g>
</g>
<g>
</g>
<g>
</g>
<g>
</g>
<g>
</g>
<g>
</g>
<g>
</g>
<g>
</g>
<g>
</g>
<g>
</g>
<g>
</g>
<g>
</g>
<g>
</g>
<g>
</g>
</svg>
