<?xml version="1.0" encoding="iso-8859-1"?>
<!-- Generator: Adobe Illustrator 18.0.0, SVG Export Plug-In . SVG Version: 6.00 Build 0)  -->
<!DOCTYPE svg PUBLIC "-//W3C//DTD SVG 1.1//EN" "http://www.w3.org/Graphics/SVG/1.1/DTD/svg11.dtd">
<svg version="1.1" id="Capa_1" xmlns="http://www.w3.org/2000/svg" xmlns:xlink="http://www.w3.org/1999/xlink" x="0px" y="0px"
	 viewBox="0 0 271.672 271.672" style="enable-background:new 0 0 271.672 271.672;" xml:space="preserve">
<path d="M206.945,23.184C186.429,8.233,159.399,0,130.836,0c-28.772,0-53.672,8.261-72.007,23.891
	C40.687,39.358,30.694,60.822,30.694,84.33c0,20.897,9.904,40.889,27.888,56.293c6.291,5.389,15.761,4.656,21.15-1.634
	c5.389-6.292,4.657-15.761-1.635-21.15c-7.939-6.801-17.403-18.134-17.403-33.509c0-31.989,28.843-54.33,70.142-54.33
	c22.263,0,43.018,6.19,58.441,17.429c13.993,10.197,21.7,23.302,21.7,36.901c0,15.987-8.636,29.917-23.693,38.22
	c-14.558,8.026-31.918,9.046-46.205,3.152V52.321c0-8.284-6.716-15-15-15c-8.284,0-15,6.716-15,15v176.221c0,0.036,0,0.072,0,0.108
	c0.015,1.972-1.058,9.666-4.625,11.971c-2.712,1.752-9.831,1.684-21.685-3.762c-7.531-3.458-16.435-0.158-19.893,7.369
	c-3.458,7.528-0.159,16.434,7.369,19.893c10.957,5.033,20.892,7.551,29.732,7.551c7.783,0,14.718-1.95,20.758-5.854
	c17.846-11.532,18.353-34.372,18.343-37.311v-71.377c6.317,1.518,12.846,2.279,19.415,2.279c14.133,0,28.457-3.521,41.275-10.59
	c24.551-13.536,39.208-37.645,39.208-64.49C240.978,60.891,228.892,39.176,206.945,23.184z"/>
<g>
</g>
<g>
</g>
<g>
</g>
<g>
</g>
<g>
</g>
<g>
</g>
<g>
</g>
<g>
</g>
<g>
</g>
<g>
</g>
<g>
</g>
<g>
</g>
<g>
</g>
<g>
</g>
<g>
</g>
</svg>
