<?xml version="1.0" encoding="iso-8859-1"?>
<!-- Generator: Adobe Illustrator 18.0.0, SVG Export Plug-In . SVG Version: 6.00 Build 0)  -->
<!DOCTYPE svg PUBLIC "-//W3C//DTD SVG 1.1//EN" "http://www.w3.org/Graphics/SVG/1.1/DTD/svg11.dtd">
<svg version="1.1" id="Capa_1" xmlns="http://www.w3.org/2000/svg" xmlns:xlink="http://www.w3.org/1999/xlink" x="0px" y="0px"
	 viewBox="0 0 284 284" style="enable-background:new 0 0 284 284;" xml:space="preserve">
<path d="M142,0.001c-19.32,0-38.071,3.836-55.648,11.368c-0.583,0.208-1.103,0.435-1.589,0.692C33.268,34.831,0,85.828,0,142
	c0,19.825,4.035,39.03,11.994,57.085c0.205,0.591,0.472,1.188,0.793,1.777c15.47,33.825,44.254,60.776,78.988,73.953
	c0.503,0.229,0.983,0.41,1.387,0.529c15.63,5.742,32.062,8.654,48.838,8.654c29.313,0,57.471-8.897,81.43-25.73
	c23.418-16.453,41.16-39.218,51.269-65.741c0.239-0.522,0.43-1.022,0.553-1.441C281.056,175.376,284,158.86,284,142
	C284,63.701,220.299,0.001,142,0.001z M84.703,155.362v89.76c-19.771-11.018-35.827-27.285-46.593-47.224L84.703,155.362z
	 M142,259.999c-11.315,0-22.511-1.61-33.297-4.789v-55.663h136.281C224.045,236.901,184.817,259.999,142,259.999z M136.322,75.74
	L28.471,174.2C25.503,163.752,24,152.932,24,142c0-44.712,24.757-84.948,64.682-105.242L136.322,75.74z M142,24.001
	c16.132,0,31.771,3.216,46.5,9.559v53.866l-73.651-60.267C123.717,25.063,132.836,24.001,142,24.001z M188.5,118.436v57.111h-79.797
	v-42.095l46.391-42.352L188.5,118.436z M260,142c0,11.406-1.635,22.688-4.861,33.547H212.5V47.435
	C242.296,69.71,260,104.841,260,142z"/>
<g>
</g>
<g>
</g>
<g>
</g>
<g>
</g>
<g>
</g>
<g>
</g>
<g>
</g>
<g>
</g>
<g>
</g>
<g>
</g>
<g>
</g>
<g>
</g>
<g>
</g>
<g>
</g>
<g>
</g>
</svg>
