<?xml version="1.0" encoding="iso-8859-1"?>
<!-- Generator: Adobe Illustrator 18.0.0, SVG Export Plug-In . SVG Version: 6.00 Build 0)  -->
<!DOCTYPE svg PUBLIC "-//W3C//DTD SVG 1.1//EN" "http://www.w3.org/Graphics/SVG/1.1/DTD/svg11.dtd">
<svg version="1.1" id="Capa_1" xmlns="http://www.w3.org/2000/svg" xmlns:xlink="http://www.w3.org/1999/xlink" x="0px" y="0px"
	 viewBox="0 0 329.922 329.922" style="enable-background:new 0 0 329.922 329.922;" xml:space="preserve">
<g>
	<path d="M79.812,113.981c19.062,0,31.215,5.586,37.154,17.079c1.218,2.357,3.321,4.132,5.848,4.938
		c2.526,0.804,5.27,0.572,7.627-0.645l6.219-3.214c4.906-2.536,6.828-8.568,4.292-13.475c-7.469-14.454-24.14-31.684-61.141-31.684
		c-42.574,0-64.849,24.577-64.849,48.855c0,33.961,25.471,42.986,50.106,51.715c2.029,0.719,4.105,1.454,6.223,2.221
		c3.13,1.132,6.257,2.191,9.336,3.234c22.893,7.752,33.896,12.256,33.896,29.796c0,21.822-23.908,24.179-34.187,24.179
		c-30.435,0-38.429-13.633-40.485-21.76c-1.354-5.354-6.794-8.594-12.147-7.242l-6.786,1.717c-2.571,0.651-4.779,2.296-6.137,4.574
		c-1.358,2.278-1.756,5.003-1.105,7.574c1.799,7.11,6.087,17.445,16.294,26.297c12.121,10.511,29.066,15.84,50.365,15.84
		c17.607,0,32.62-4.554,43.415-13.167c11.627-9.276,17.772-22.42,17.772-38.012c0-16.708-6.115-29.972-18.175-39.424
		c-9.912-7.769-22.189-11.926-34.062-15.946c-2.913-0.986-5.924-2.006-8.814-3.052c-2.153-0.778-4.265-1.526-6.388-2.279
		c-24.403-8.646-32.123-12.059-32.123-26.265C41.963,125.241,55.229,113.981,79.812,113.981z"/>
	<path d="M316.059,125.293c-1.328-4.088-5.12-6.869-9.418-6.909l-116.514-1.083L153.093,6.821C151.727,2.746,147.909,0,143.611,0
		c-4.298,0-8.115,2.746-9.482,6.821l-23.793,70.98c7.107,2.049,13.614,4.913,19.47,8.595c1.721,1.082,3.373,2.234,4.97,3.444
		l8.834-26.353l24.765,73.879c1.355,4.043,5.125,6.781,9.389,6.821l77.906,0.724l-62.61,46.374
		c-3.427,2.538-4.867,6.97-3.587,11.037l23.391,74.322l-58.051-41.361c-1.744,9.383-5.499,17.863-11.163,25.198l94.854,67.585
		c1.737,1.237,3.77,1.855,5.803,1.855c0.006,0,0.012,0,0.02,0c5.523,0,10-4.477,10-10c0-1.278-0.24-2.501-0.677-3.625
		l-34.786-110.525l93.635-69.352C315.954,133.86,317.387,129.381,316.059,125.293z"/>
</g>
<g>
</g>
<g>
</g>
<g>
</g>
<g>
</g>
<g>
</g>
<g>
</g>
<g>
</g>
<g>
</g>
<g>
</g>
<g>
</g>
<g>
</g>
<g>
</g>
<g>
</g>
<g>
</g>
<g>
</g>
</svg>
