<?xml version="1.0" encoding="iso-8859-1"?>
<!-- Generator: Adobe Illustrator 18.0.0, SVG Export Plug-In . SVG Version: 6.00 Build 0)  -->
<!DOCTYPE svg PUBLIC "-//W3C//DTD SVG 1.1//EN" "http://www.w3.org/Graphics/SVG/1.1/DTD/svg11.dtd">
<svg version="1.1" id="Capa_1" xmlns="http://www.w3.org/2000/svg" xmlns:xlink="http://www.w3.org/1999/xlink" x="0px" y="0px"
	 viewBox="0 0 260 260" style="enable-background:new 0 0 260 260;" xml:space="preserve">
<g>
	<path d="M130,90c-22.057,0-40,17.944-40,40c0,22.057,17.943,40,40,40s40-17.943,40-40C170,107.944,152.057,90,130,90z"/>
	<path d="M130,0C58.317,0,0,58.318,0,130s58.317,130,130,130s130-58.318,130-130S201.683,0,130,0z M130,191.791
		c-10.82,0-20.994-2.804-29.848-7.71l-25.533,7.507c-0.464,0.137-0.939,0.203-1.41,0.203c-1.287,0-2.547-0.498-3.494-1.423
		c-1.294-1.264-1.804-3.128-1.334-4.875l7.106-26.436c-4.639-8.667-7.278-18.558-7.278-29.057c0-34.072,27.72-61.791,61.791-61.791
		S191.791,95.928,191.791,130S164.071,191.791,130,191.791z"/>
</g>
<g>
</g>
<g>
</g>
<g>
</g>
<g>
</g>
<g>
</g>
<g>
</g>
<g>
</g>
<g>
</g>
<g>
</g>
<g>
</g>
<g>
</g>
<g>
</g>
<g>
</g>
<g>
</g>
<g>
</g>
</svg>
