<?xml version="1.0" encoding="iso-8859-1"?>
<!-- Generator: Adobe Illustrator 18.0.0, SVG Export Plug-In . SVG Version: 6.00 Build 0)  -->
<!DOCTYPE svg PUBLIC "-//W3C//DTD SVG 1.1//EN" "http://www.w3.org/Graphics/SVG/1.1/DTD/svg11.dtd">
<svg version="1.1" id="Capa_1" xmlns="http://www.w3.org/2000/svg" xmlns:xlink="http://www.w3.org/1999/xlink" x="0px" y="0px"
	 viewBox="0 0 280 280" style="enable-background:new 0 0 280 280;" xml:space="preserve">
<g>
	<path d="M160.351,102.043h40V84.438c0-33.132-26.956-60.087-60.089-60.087c-33.132,0-60.086,26.955-60.086,60.087v111.123
		c0,11.076-9.013,20.087-20.09,20.087c-11.075,0-20.086-9.011-20.086-20.087v-51.857H0v51.857c0,33.132,26.954,60.087,60.086,60.087
		c33.134,0,60.09-26.955,60.09-60.087V84.438c0-11.076,9.011-20.087,20.086-20.087c11.077,0,20.089,9.011,20.089,20.087V102.043z"/>
	<path d="M240,144.332v51.229c0,11.076-9.011,20.087-20.086,20.087c-11.077,0-20.09-9.011-20.09-20.087v-51.857h-40v51.857
		c0,33.132,26.956,60.087,60.09,60.087c33.132,0,60.086-26.955,60.086-60.087v-51.229H240z"/>
</g>
<g>
</g>
<g>
</g>
<g>
</g>
<g>
</g>
<g>
</g>
<g>
</g>
<g>
</g>
<g>
</g>
<g>
</g>
<g>
</g>
<g>
</g>
<g>
</g>
<g>
</g>
<g>
</g>
<g>
</g>
</svg>
