<?xml version="1.0" encoding="iso-8859-1"?>
<!-- Generator: Adobe Illustrator 18.0.0, SVG Export Plug-In . SVG Version: 6.00 Build 0)  -->
<!DOCTYPE svg PUBLIC "-//W3C//DTD SVG 1.1//EN" "http://www.w3.org/Graphics/SVG/1.1/DTD/svg11.dtd">
<svg version="1.1" id="Capa_1" xmlns="http://www.w3.org/2000/svg" xmlns:xlink="http://www.w3.org/1999/xlink" x="0px" y="0px"
	 viewBox="0 0 324.856 324.856" style="enable-background:new 0 0 324.856 324.856;" xml:space="preserve">
<path d="M284.277,178.561c-0.888,0-1.766,0.039-2.64,0.096l-8.462-25.031c8.973-6.41,14.839-16.902,14.839-28.744
	c0-19.474-15.843-35.316-35.316-35.316c-10.118,0-19.249,4.284-25.694,11.126L161.559,77.59
	c-0.613-18.94-16.201-34.162-35.287-34.162c-19.472,0-35.314,15.843-35.314,35.316c0,4.643,0.909,9.074,2.545,13.139l-27.249,26.123
	c-6.999-5.734-15.941-9.182-25.675-9.182C18.204,108.825,0,127.027,0,149.402c0,22.377,18.204,40.582,40.579,40.582
	c7.483,0,14.494-2.044,20.519-5.591l35.774,36.575c-0.979,3.836-1.502,7.852-1.502,11.988c0,26.728,21.746,48.472,48.475,48.472
	c22.359,0,41.222-15.221,46.794-35.842l57.711-7.614c6.798,12.913,20.347,21.743,35.928,21.743
	c22.376,0,40.579-18.201,40.579-40.574C324.856,196.765,306.653,178.561,284.277,178.561z M243.698,219.141
	c0,0.431,0.019,0.856,0.033,1.284l-51.759,6.829c-0.275-2.337-0.713-4.623-1.31-6.847c27.065-8.601,46.883-33.578,47.724-63.254
	c4.378,1.95,9.218,3.042,14.312,3.042c1.227,0,2.439-0.064,3.634-0.186l8.042,23.788
	C252.044,190.769,243.698,203.995,243.698,219.141z M105.196,203.737L74.223,172.07c4.377-6.477,6.936-14.279,6.936-22.668
	c0-6.111-1.366-11.906-3.796-17.109l27-25.884c3.532,2.803,7.609,4.944,12.046,6.237c-9.308,11.692-14.889,26.477-14.889,42.549
	c0,14.709,4.678,28.337,12.604,39.507C110.771,197.313,107.764,200.348,105.196,203.737z M130.358,186.403
	c-6.784-8.593-10.839-19.436-10.839-31.208c0-27.821,22.634-50.455,50.455-50.455s50.455,22.634,50.455,50.455
	c0,23.424-16.047,43.163-37.723,48.818c-8.846-11.848-22.973-19.533-38.862-19.533C139.164,184.48,134.643,185.16,130.358,186.403z
	 M252.698,107.565c9.548,0,17.316,7.768,17.316,17.316c0,9.547-7.768,17.313-17.316,17.313c-9.547,0-17.314-7.767-17.314-17.313
	C235.384,115.333,243.151,107.565,252.698,107.565z M126.272,61.428c9.548,0,17.316,7.768,17.316,17.316
	c0,9.547-7.768,17.313-17.316,17.313c-9.547,0-17.314-7.767-17.314-17.313C108.958,69.196,116.726,61.428,126.272,61.428z
	 M18,149.402c0-12.449,10.129-22.577,22.579-22.577s22.58,10.128,22.58,22.577c0,12.452-10.129,22.582-22.58,22.582
	S18,161.854,18,149.402z M143.844,263.428c-16.804,0-30.475-13.67-30.475-30.472c0-16.805,13.671-30.477,30.475-30.477
	c16.804,0,30.474,13.672,30.474,30.477C174.318,249.758,160.648,263.428,143.844,263.428z M284.277,241.715
	c-12.45,0-22.58-10.127-22.58-22.574c0-12.451,10.129-22.58,22.58-22.58s22.579,10.129,22.579,22.58
	C306.856,231.588,296.727,241.715,284.277,241.715z"/>
<g>
</g>
<g>
</g>
<g>
</g>
<g>
</g>
<g>
</g>
<g>
</g>
<g>
</g>
<g>
</g>
<g>
</g>
<g>
</g>
<g>
</g>
<g>
</g>
<g>
</g>
<g>
</g>
<g>
</g>
</svg>
