<?xml version="1.0" encoding="iso-8859-1"?>
<!-- Generator: Adobe Illustrator 18.0.0, SVG Export Plug-In . SVG Version: 6.00 Build 0)  -->
<!DOCTYPE svg PUBLIC "-//W3C//DTD SVG 1.1//EN" "http://www.w3.org/Graphics/SVG/1.1/DTD/svg11.dtd">
<svg version="1.1" id="Capa_1" xmlns="http://www.w3.org/2000/svg" xmlns:xlink="http://www.w3.org/1999/xlink" x="0px" y="0px"
	 viewBox="0 0 300.531 300.531" style="enable-background:new 0 0 300.531 300.531;" xml:space="preserve">
<path d="M300.143,115.522c-0.187-9.039-1.151-18.223-3.189-27.023C285.009,37.041,237.946-0.004,185.22,0.041
	c-23.306,0.024-46.611-0.154-69.906,0.088c-7.206,0.088-14.527,0.666-21.564,2.08C38.765,13.371,0.482,60.512,0.46,116.711
	c-0.013,22.279-0.223,44.553,0.111,66.836c0.131,8.322,0.838,16.775,2.499,24.932c10.432,51.037,55.316,91.246,111.822,91.912
	l128.673,0.141c9.596-0.041,19.231-0.838,28.773-1.881c15.434-1.703,23.383-9.207,25.897-24.379
	c1.139-6.91,1.85-13.973,1.913-20.971L300.143,115.522z M138.045,186.195c-6.865,13.959-13.99,28.657-21.176,43.687
	c-2.575,5.386-7.947,8.533-13.543,8.533c-2.17,0-4.372-0.473-6.46-1.472c-7.474-3.573-10.636-12.529-7.062-20.003
	c7.233-15.128,14.407-29.927,21.32-43.984c3.656-7.435,12.646-10.5,20.08-6.841C138.639,169.771,141.701,178.761,138.045,186.195z
	 M117.767,122.326c-8.046,0-15.988-3.347-21.788-9.182c-5.854-5.889-9.052-13.59-9.004-21.686
	c0.096-17.123,13.574-30.537,30.683-30.537h0.194c16.998,0.096,30.759,13.783,30.673,30.511
	C148.477,108.168,134.392,122.326,117.767,122.326z M214.851,229.523c-2.208,3.7-4.109,6.621-6.003,9.229
	c-2.935,4.038-7.509,6.182-12.146,6.182c-3.058,0-6.144-0.932-8.807-2.867c-6.701-4.87-8.186-14.251-3.315-20.953
	c1.35-1.856,2.776-4.058,4.488-6.928c11.556-19.486,17.381-41.076,17.292-64.135c-0.035-7.295-0.861-15.292-2.597-25.153
	c-2.837-16.066-9.241-31.363-19.034-45.46c-4.727-6.803-3.043-16.15,3.761-20.877c6.804-4.725,16.15-3.043,20.877,3.761
	c12.287,17.688,20.342,36.988,23.94,57.366c2.039,11.58,3.009,21.185,3.053,30.232C236.469,178.493,229.232,205.27,214.851,229.523z
	"/>
<g>
</g>
<g>
</g>
<g>
</g>
<g>
</g>
<g>
</g>
<g>
</g>
<g>
</g>
<g>
</g>
<g>
</g>
<g>
</g>
<g>
</g>
<g>
</g>
<g>
</g>
<g>
</g>
<g>
</g>
</svg>
