<?xml version="1.0" encoding="iso-8859-1"?>
<!-- Generator: Adobe Illustrator 18.0.0, SVG Export Plug-In . SVG Version: 6.00 Build 0)  -->
<!DOCTYPE svg PUBLIC "-//W3C//DTD SVG 1.1//EN" "http://www.w3.org/Graphics/SVG/1.1/DTD/svg11.dtd">
<svg version="1.1" id="Capa_1" xmlns="http://www.w3.org/2000/svg" xmlns:xlink="http://www.w3.org/1999/xlink" x="0px" y="0px"
	 viewBox="0 0 346.713 346.713" style="enable-background:new 0 0 346.713 346.713;" xml:space="preserve">
<path d="M257.056,83.699c-40.293,0-65.388,25.311-79.345,46.543c-1.082,1.648-1.011,3.798,0.179,5.37l12.814,16.93
	c0.943,1.246,2.448,1.934,4.005,1.837c1.559-0.097,2.965-0.97,3.744-2.323c10.32-17.904,28.863-39.247,58.603-39.247
	c33.385,0,60.544,27.161,60.544,60.547s-27.159,60.547-60.544,60.547c-30.06,0-49.854-32.929-70.81-67.793
	c-24.357-40.516-49.543-82.412-96.589-82.412C40.221,83.699,0,123.919,0,173.356s40.221,89.658,89.657,89.658
	c40.116,0,65.155-25.106,79.096-46.167c1.073-1.621,1.026-3.738-0.116-5.31l-12.574-17.294c-0.929-1.276-2.454-1.997-4.014-1.912
	c-1.575,0.084-3.002,0.959-3.789,2.326c-10.32,17.904-28.863,39.247-58.603,39.247c-33.385,0-60.544-27.161-60.544-60.547
	s27.159-60.547,60.544-60.547c30.58,0,50.523,33.175,71.638,68.3c24.207,40.267,49.237,81.904,95.761,81.904
	c49.436,0,89.657-40.22,89.657-89.658S306.492,83.699,257.056,83.699z"/>
<g>
</g>
<g>
</g>
<g>
</g>
<g>
</g>
<g>
</g>
<g>
</g>
<g>
</g>
<g>
</g>
<g>
</g>
<g>
</g>
<g>
</g>
<g>
</g>
<g>
</g>
<g>
</g>
<g>
</g>
</svg>
