<?xml version="1.0" encoding="iso-8859-1"?>
<!-- Generator: Adobe Illustrator 18.0.0, SVG Export Plug-In . SVG Version: 6.00 Build 0)  -->
<!DOCTYPE svg PUBLIC "-//W3C//DTD SVG 1.1//EN" "http://www.w3.org/Graphics/SVG/1.1/DTD/svg11.dtd">
<svg version="1.1" id="Capa_1" xmlns="http://www.w3.org/2000/svg" xmlns:xlink="http://www.w3.org/1999/xlink" x="0px" y="0px"
	 viewBox="0 0 246.464 246.464" style="enable-background:new 0 0 246.464 246.464;" xml:space="preserve">
<path d="M228.417,125.98c-0.006-3.585-2.914-6.489-6.5-6.489h-0.216c-25.966,0-64.719-1.384-83.235-36.124
	c-2.416-4.532-3.962-9.47-5.008-14.458c-2.071-9.909-1.578-17.777,1.549-24.76c3.064-6.83,9.786-12.372,17.334-14.349
	c16.358-4.285,27.142,1.994,32.123,9.949c8.482,13.548,9.253,38.959,2.273,61.548c-0.553,1.791-0.306,3.734,0.678,5.331
	c0.984,1.596,2.609,2.689,4.458,2.999c0.393,0.065,10.153,1.677,16.443,1.526c2.859-0.068,5.336-1.997,6.105-4.751
	c4.104-14.705,11.728-52.055-6.048-81.224c-7.938-13.025-19.75-21.307-34.169-23.957C170.414,0.411,166.529,0,162.652,0
	c-7.015,0-14.09,1.285-21.631,3.929c-14.695,5.158-25.315,14.835-31.566,28.768c-5.584,12.469-6.698,26.19-3.404,41.95
	c1.532,7.303,3.992,14.411,7.311,21.122c10.738,21.761,26.96,35.939,48.219,42.146c1.298,0.419,6.184,1.95,13.42,3.672
	c-0.383,1.031-0.766,2.041-1.146,3.026c-9.785,25.363-20.878,44.309-34.911,59.622c-4.753,5.188-9.285,9.097-13.856,11.953
	c-3.035,1.899-4.184,2.298-4.612,2.298c-0.429,0-1.579-0.399-4.621-2.303c-4.559-2.848-9.089-6.756-13.85-11.949
	c-14.029-15.309-25.122-34.254-34.908-59.621c-8.47-21.956-14.725-46.054-19.122-73.682c-0.383-2.384-1.825-12.234-2.224-14.726
	c-0.568-3.544-3.902-5.959-7.445-5.391l-14.811,2.37c-1.703,0.272-3.227,1.21-4.238,2.606c-1.011,1.396-1.426,3.137-1.154,4.839
	c0.378,2.359,1.818,12.203,2.223,14.722c4.708,29.577,11.462,55.529,20.647,79.339c11.086,28.735,23.92,50.489,40.391,68.462
	c6.493,7.083,12.921,12.569,19.647,16.771c7.129,4.461,13.314,6.539,19.464,6.539c6.148,0,12.332-2.077,19.458-6.535
	c6.74-4.212,13.169-9.7,19.654-16.778c16.472-17.974,29.306-39.728,40.392-68.462c1.031-2.675,2.05-5.431,3.045-8.237
	c6.465,0.691,12.726,1.04,18.672,1.04h0.244c1.726,0,3.381-0.686,4.6-1.908c1.219-1.221,1.903-2.877,1.9-4.603L228.417,125.98z"/>
<g>
</g>
<g>
</g>
<g>
</g>
<g>
</g>
<g>
</g>
<g>
</g>
<g>
</g>
<g>
</g>
<g>
</g>
<g>
</g>
<g>
</g>
<g>
</g>
<g>
</g>
<g>
</g>
<g>
</g>
</svg>
