<?xml version="1.0" encoding="iso-8859-1"?>
<!-- Generator: Adobe Illustrator 18.0.0, SVG Export Plug-In . SVG Version: 6.00 Build 0)  -->
<!DOCTYPE svg PUBLIC "-//W3C//DTD SVG 1.1//EN" "http://www.w3.org/Graphics/SVG/1.1/DTD/svg11.dtd">
<svg version="1.1" id="Capa_1" xmlns="http://www.w3.org/2000/svg" xmlns:xlink="http://www.w3.org/1999/xlink" x="0px" y="0px"
	 viewBox="0 0 275.272 275.272" style="enable-background:new 0 0 275.272 275.272;" xml:space="preserve">
<path d="M255.267,51.563c-13.438-14.582-31.672-23.009-51.341-23.729c-0.897-0.032-1.795-0.049-2.685-0.049
	c-24.129,0-46.466,12.046-60.442,32.409c-12.763-26.369-38.959-43.087-67.593-42.547c-19.972,0.337-39.377,9.093-53.242,24.024
	C6.01,56.698-1.036,76.139,0.123,96.413c2.068,36.042,20.39,52.762,37.294,69.76c34.442,34.632,31.087,80.557,31.097,80.841
	c0.087,2.628,0.352,10.623,8.908,10.624h0.002c1.775,0,3.876-0.385,6.422-1.177c79.861-24.851,135.764-54.806,166.157-89.033
	c24.844-27.979,25.268-50.324,25.268-58.737C275.272,89.012,269.128,66.604,255.267,51.563z"/>
<g>
</g>
<g>
</g>
<g>
</g>
<g>
</g>
<g>
</g>
<g>
</g>
<g>
</g>
<g>
</g>
<g>
</g>
<g>
</g>
<g>
</g>
<g>
</g>
<g>
</g>
<g>
</g>
<g>
</g>
</svg>
