<?xml version="1.0" encoding="iso-8859-1"?>
<!-- Generator: Adobe Illustrator 18.0.0, SVG Export Plug-In . SVG Version: 6.00 Build 0)  -->
<!DOCTYPE svg PUBLIC "-//W3C//DTD SVG 1.1//EN" "http://www.w3.org/Graphics/SVG/1.1/DTD/svg11.dtd">
<svg version="1.1" id="Capa_1" xmlns="http://www.w3.org/2000/svg" xmlns:xlink="http://www.w3.org/1999/xlink" x="0px" y="0px"
	 viewBox="0 0 250.034 250.034" style="enable-background:new 0 0 250.034 250.034;" xml:space="preserve">
<path d="M206.894,216.159c-5.152-6.488-14.59-7.571-21.075-2.419c-11.522,9.149-29.609,6.254-39.644,3.607
	c-12.842-4.334-34.213-17.171-41.43-21.796c-0.082-0.052-0.164-0.104-0.247-0.154c-8.832-5.426-17.257-9.415-25.383-12.001
	c2.762-3.151,5.393-6.162,7.929-9.074c17.443-19.928,34.902-39.84,52.378-59.768c4.552-5.201,11.189-12.607,18.216-20.448
	c7.917-8.833,16.104-17.968,22.469-25.24c11.354-12.973,13.777-15.91,14.385-21.384c0.624-5.476,1.273-10.962,1.923-16.439
	l0.781-6.613c0.742-6.353-1.37-12.277-5.795-16.252c-5.718-5.137-12.593-4.96-15.984-4.457c-0.358,0.045-0.716,0.103-1.072,0.175
	c-24.597,4.93-48.062,6.926-69.749,5.945C92.361,9.288,79.568,8.201,68.81,4.032c-0.667-0.319-2.445-1.215-4.437-2.273
	C57.061-2.13,47.978,0.645,44.087,7.961c-3.89,7.314-1.112,16.396,6.202,20.286c4.885,2.598,6.648,3.36,7.397,3.649
	c14.859,5.818,30.676,7.243,45.552,7.913c19.724,0.898,40.653-0.403,62.389-3.868c-0.168,1.437-0.336,2.875-0.503,4.314
	c-5.178,6.326-19.755,22.591-29.827,33.828c-7.088,7.909-13.782,15.379-18.44,20.702c-17.472,19.923-34.938,39.843-52.412,59.807
	c-5.067,5.819-10.491,12.008-16.626,18.966c-6.523,7.464-7.932,11.243-7.932,21.283c0,4.096,1.675,8.013,4.635,10.843
	c2.961,2.83,6.959,4.324,11.041,4.142c9.308-0.394,20.454,3.302,33.121,11.064c2.433,1.554,29.92,18.976,48.503,25.084
	c0.261,0.086,0.523,0.164,0.788,0.235c9.502,2.556,18.507,3.825,26.913,3.825c15.457,0,28.88-4.298,39.587-12.8
	C210.962,232.082,212.045,222.646,206.894,216.159z M68.54,3.928c-0.141-0.056-0.282-0.108-0.425-0.159
	C68.212,3.803,68.364,3.858,68.54,3.928z"/>
<g>
</g>
<g>
</g>
<g>
</g>
<g>
</g>
<g>
</g>
<g>
</g>
<g>
</g>
<g>
</g>
<g>
</g>
<g>
</g>
<g>
</g>
<g>
</g>
<g>
</g>
<g>
</g>
<g>
</g>
</svg>
